<?xml version="1.0" encoding="utf-8"?>
<!-- Generator: Adobe Illustrator 22.1.0, SVG Export Plug-In . SVG Version: 6.00 Build 0)  -->
<svg version="1.1" id="Black_-_on_White" xmlns="http://www.w3.org/2000/svg" xmlns:xlink="http://www.w3.org/1999/xlink" x="0px"
	 y="0px" viewBox="0 0 612 79" style="enable-background:new 0 0 612 79;" xml:space="preserve">
<style type="text/css">
	.st0{fill:#C78D2B;}
	.st1{fill:url(#SVGID_1_);}
	.st2{fill:url(#SVGID_2_);}
</style>
<g>
	<g>
		<path d="M145.2,28.9c0-4.9,0-9.4,0-14.3c0-0.1,0-0.2,0-0.2c0-0.1,0-0.1-0.1-0.1c-0.1,0-0.1,0-0.2,0c-0.9,0-0.8,0-1.7,0
			c-0.1,0-0.1,0-0.2,0c0,0-0.1,0-0.1-0.1c0,0,0,0,0-0.1c0,0,0-0.1,0-0.1c0-2.3,0-5,0-7.2c0-0.1,0-0.1,0-0.2c0,0,0-0.1,0.1-0.1
			c0.3,0.1,0.6,0.1,0.9,0.2c0.3,0.1,0.7,0.1,1,0.2c1.1,0.2,2.2,0.6,3.3,1c0.6,0.3,1.2,0.6,1.7,0.9c0.4,0.3,0.8,0.6,1.1,0.9
			c0.4,0.4,0.8,0.9,1.1,1.4c0.3,0.6,0.6,1.2,0.8,1.8c0.3,0.7,0.5,1.5,0.7,2.3c0.2,0.7,0.3,1.3,0.4,2c0.1,0.5,0.2,1,0.2,1.5
			c0,0.3,0.1,0.5,0.1,0.8c0,0.3,0.1,0.6,0.1,0.9c0,0.2,0,0.4,0.1,0.6c0,0.2,0,0.5,0.1,0.7c0,0,0,0.1,0,0.1c0,0.3,0,0.6,0.1,0.9
			c0,0.3,0,0.7,0.1,1c0,0,0,0,0,0c0,0.5,0,0.9,0.1,1.4c0,1.1,0,2.3,0.1,3.4c0,0.5,0,1,0,1.5c0,0.4,0,0.7,0,1.1c0,0.4,0,0.7,0,1.1
			c0,0.1,0,0.1,0,0.2c0,0.6,0,1.1-0.1,1.7c0,0.4,0,0.7-0.1,1.1c0,0.3,0,0.6-0.1,0.9c0,0.3,0,0.5-0.1,0.8c0,0.2,0,0.4-0.1,0.6
			c0,0.2,0,0.5-0.1,0.7c0,0.2,0,0.3-0.1,0.5c0,0.2,0,0.3-0.1,0.5c-0.1,0.4-0.1,0.8-0.2,1.2c-0.2,1.1-0.3,2.1-0.6,3.2
			c-0.2,0.9-0.5,1.7-0.8,2.6c-0.2,0.4-0.3,0.7-0.5,1.1c-0.5,0.9-1.1,1.6-1.9,2.2c-0.5,0.4-1.1,0.7-1.7,1c-0.7,0.3-1.4,0.6-2.2,0.8
			c-0.6,0.2-1.2,0.3-1.8,0.4c-0.5,0.1-0.9,0.2-1.4,0.2c-0.4,0.1-0.7,0.1-1.1,0.2c-0.2,0-0.4,0-0.6,0.1c-0.2,0-0.4,0-0.6,0.1
			c-0.2,0-0.4,0-0.5,0c-0.3,0-0.5,0-0.8,0.1c-0.4,0-0.8,0-1.2,0.1c0,0-0.1,0-0.1,0c-0.5,0-1,0-1.5,0c-1.1,0-2.3,0-3.4,0
			c-0.3,0-0.5,0-0.8,0c-0.4,0-0.8,0-1.3-0.1c-0.3,0-0.5,0-0.8-0.1c-0.2,0-0.5,0-0.7-0.1c-0.2,0-0.4,0-0.5-0.1c-0.2,0-0.4,0-0.5-0.1
			c-0.3,0-0.6-0.1-0.9-0.1c-0.3,0-0.5-0.1-0.8-0.1c-0.5-0.1-1-0.2-1.5-0.3c-0.7-0.2-1.3-0.4-2-0.6c-0.6-0.2-1.2-0.5-1.8-0.8
			c-0.5-0.3-0.9-0.6-1.3-0.9c-0.5-0.4-0.9-0.9-1.3-1.5c-0.4-0.6-0.7-1.2-0.9-1.8c-0.3-0.7-0.5-1.5-0.7-2.3c-0.2-0.7-0.3-1.5-0.5-2.2
			c-0.1-0.5-0.2-1-0.2-1.5c-0.1-0.4-0.1-0.8-0.1-1.2c0-0.3-0.1-0.7-0.1-1c0-0.2,0-0.3,0-0.5c0-0.3,0-0.5-0.1-0.8c0-0.3,0-0.7-0.1-1
			c0,0,0-0.1,0-0.1c0-0.3,0-0.6,0-1c0-0.9-0.1-1.8-0.1-2.8c0-1.1,0-2.2,0-3.3c0-0.6,0-1.2,0-1.8c0-0.3,0-0.7,0-1
			c0-0.4,0-0.8,0.1-1.2c0,0,0-0.1,0-0.1c0-0.3,0-0.7,0.1-1c0-0.4,0.1-0.7,0.1-1.1c0-0.4,0.1-0.7,0.1-1.1c0-0.2,0-0.4,0.1-0.6
			c0-0.2,0-0.3,0.1-0.5c0-0.1,0-0.3,0.1-0.4c0.1-0.5,0.1-1,0.2-1.5c0.1-0.9,0.3-1.8,0.5-2.6c0.2-0.9,0.5-1.7,0.8-2.6
			c0.2-0.4,0.4-0.9,0.6-1.3c0.5-0.9,1.1-1.7,2-2.3c0.5-0.4,1-0.7,1.6-0.9c0.7-0.3,1.4-0.6,2.1-0.8c0.7-0.2,1.3-0.4,2-0.5
			c0.4-0.1,0.9-0.2,1.4-0.2c0.1,0,0.2,0,0.3,0c0,0,0,0,0.1,0c0,0,0.1,0,0.1,0.1c0,0.1,0,0.1,0,0.2c0,2.3,0,4.9,0,7.2
			c0,0.1,0,0.1,0,0.2c0,0.1,0,0.1-0.1,0.1c-0.1,0-0.1,0-0.2,0c-0.9,0-0.9,0-1.8,0c-0.1,0-0.1,0-0.2,0c0,0-0.1,0-0.1,0.1
			c0,0,0,0,0,0.1c0,0.1,0,0.1,0,0.2c0,9.8,0,18.2,0,28c0,0.1,0,0.2,0,0.3c0,0,0,0.1,0.1,0.1c0,0,0.1,0,0.1,0c0.1,0,0.1,0,0.2,0
			c6.7,0,11.6,0,18.3,0c0.1,0,0.2,0,0.2,0c0,0,0.1,0,0.1-0.1c0-0.1,0-0.2,0-0.2c0-4.8,0-8.5,0-13.3C145.2,29.1,145.2,29,145.2,28.9z
			"/>
		<path d="M132,14.4c0-2.6,0-5.3,0-7.9c0-0.4,0-0.3,0.3-0.3c2.5,0,4.4,0,6.9,0c0.3,0,0.3,0,0.3,0.3c0,5.3,0,9.1,0,14.4
			c0,0.3,0,0.3-0.3,0.3c-2.5,0-4.4,0-6.9,0c-0.3,0-0.3,0-0.3-0.3C132,18.2,132,17,132,14.4z"/>
	</g>
	<g>
		<g id="p0fAkM_5_">
			<g>
				<path class="st0" d="M592.6,58.1c0,0.1,0.1,0.2,0.1,0.3c1.5,2.6,3.1,5.2,4.6,7.7c1.5,2.6,3.1,5.1,4.6,7.7
					c0.1,0.1,0.1,0.2,0.1,0.3c-0.1,0.1-0.3,0-0.4,0c-1.7,0-3.5-0.1-5.2-0.1c-3.1,0-6.3,0-9.4-0.1c-3.5-0.1-7.1,0-10.6-0.1
					c-0.3,0-0.6,0-0.9-0.1c0.3-0.1,0.5-0.1,0.8-0.2c1-0.3,1.6-0.9,1.9-1.9c0.2-0.6,0.3-1.1,0.3-1.7c0-0.5,0.1-1,0.1-1.4
					c0-0.1,0-0.2,0-0.3c-0.3-0.1-2.3-0.1-3,0c-0.1,0.1-0.1,0.2-0.1,0.3c0,0.7,0,1.3,0,2c0,0.1,0,0.3,0,0.4c0,0,0,0.1-0.1,0.1
					c0,0,0,0,0,0c-2.1,0-4.2,0-6.3,0c-0.1,0-0.2,0-0.3,0c0,0,0,0,0,0c-0.1-0.4,0-9.4,0-9.8c0.3-0.1,6.2-0.1,6.7,0c0.1,0.3,0,0.7,0,1
					c0,0.3,0,0.7,0,1c0.3,0,0.5,0,0.7,0c0.2,0,0.5,0,0.7,0c0.2,0,0.5,0,0.7,0c0.2,0,0.5,0,0.8,0c0-0.2,0-0.3,0-0.5
					c0-0.7-0.1-1.4-0.2-2.2c-0.1-0.3-0.2-0.6-0.3-0.8c-0.3-0.6-0.7-1.1-1.3-1.4c-0.1-0.1-0.3-0.1-0.4-0.2c0.1,0,0.3,0,0.4,0
					c3.4,0,6.8,0,10.2,0c0.1,0,0.3,0,0.4,0C589,58.1,590.8,58.1,592.6,58.1z"/>
				<path class="st0" d="M561,73.7c0-5.2,0-10.4,0-15.5c0,0,0,0,0,0c0,0,0,0,0,0c2.4,0,4.9,0,7.3,0c0.1,0,0.1,0,0.2,0
					c0,0.1-0.1,0.1-0.2,0.1c-0.2,0.1-0.4,0.1-0.6,0.2c-0.7,0.3-1.3,0.9-1.6,1.6c-0.2,0.5-0.4,1.1-0.5,1.7c-0.1,0.8-0.2,1.5-0.2,2.3
					c0,1.2,0,2.5,0.1,3.7c0.1,1.2,0.2,2.4,0.5,3.5c0.3,1.1,0.9,1.8,1.9,2.1c0.3,0.1,0.6,0.2,1,0.3C566.4,73.8,563.7,73.8,561,73.7z"
					/>
				<path class="st0" d="M546.6,73.6c-0.4,0.1-4.1,0-4.8,0c-0.1-0.1,0-0.3,0-0.4c0-3.3,0-6.5,0-9.8c0-1.5,0-3.2,0-4.7
					c0-0.1,0-0.3,0-0.4c0,0,0,0,0.1,0c0,0,0,0,0,0c1.5,0,3,0,4.6,0c0.1,0,0.1,0,0.1,0c0,0,0,0,0,0c0,0,0,0,0,0c0,4.9,0,10,0,14.9
					C546.7,73.3,546.6,73.4,546.6,73.6z"/>
				<path class="st0" d="M549.7,60.8c0.1,0.1,0.1,0.1,0.1,0.1c2.1,4.2,4.1,8.5,6.2,12.7c-0.1,0.1-0.1,0.1-0.2,0.1
					c-0.6,0-1.2,0-1.8,0c-1.3,0-2.6,0-3.9,0c-0.1,0-0.3,0-0.4,0c-0.1-0.1-0.1-0.2-0.1-0.2c0-4.2,0-8.3,0-12.5
					C549.6,60.9,549.6,60.9,549.7,60.8z"/>
				<path class="st0" d="M557.8,71c-2-4.2-4-8.4-5.9-12.6c0,0,0-0.1,0-0.1c0-0.1,0.1-0.1,0.2-0.1c1.9,0,3.8,0,5.7,0
					c0.1,0,0.2,0,0.2,0C557.9,58.5,557.9,70.3,557.8,71z"/>
			</g>
		</g>
		<polygon id="Bar_Under_Text_5_" class="st0" points="538.6,73.6 458.1,72.5 454,71.8 449.4,72.4 78.2,65.2 68.8,63.9 61.7,65.1 
			31.3,64.6 30.7,63.9 15.8,64.3 20.5,58.2 35.1,58.2 57.6,58.2 72.8,58.2 449.3,58.2 458.1,58.2 538.6,58.2 		"/>
	</g>
	<path d="M203.5,6.2v46.1h-14.8L175.5,27c-0.7-1.3-1.7-3.5-3.1-6.6L171,17l-1.5-3.3h-0.3l0.1,3l0.1,3l0.1,6v26.5h-8.8V6.2h14.8
		l12,23.4c1.1,2.1,2.3,4.6,3.7,7.5l1.8,3.8l1.8,3.8h0.3l-0.1-3l-0.1-3l-0.1-5.9V6.2H203.5z"/>
	<path d="M218.5,13.5v11.9h14.4v6.5h-14.4v13h15l7.4,7.4h-31.2V6.2h31.1l-7.3,7.4H218.5z"/>
	<path d="M287.7,6.2v46.1h-14.8L259.7,27c-0.7-1.3-1.7-3.5-3.1-6.6l-1.5-3.3l-1.5-3.3h-0.3l0.1,3l0.1,3l0.1,6v26.5h-8.8V6.2h14.8
		l12,23.4c1.1,2.1,2.3,4.6,3.7,7.5l1.8,3.8l1.8,3.8h0.3l-0.1-3l-0.1-3l-0.1-5.9V6.2H287.7z"/>
	<path d="M319.4,14v38.3h-8.8V14H299l-7-7.8h43.8l-7.1,7.8H319.4z"/>
	<path d="M348.5,6.2v46.1h-8.8V6.2H348.5z"/>
	<path d="M384.5,43.4h-19.9l-2.9,8.9h-9.3l15.3-46.1H381l15.6,46.1h-9.1L384.5,43.4z M382.5,37l-8-24l-7.8,24H382.5z"/>
	<path d="M409.2,6.2v38.3h18.3l7.4,7.8h-34.4V6.2H409.2z"/>
	<linearGradient id="SVGID_1_" gradientUnits="userSpaceOnUse" x1="46.8602" y1="65.2024" x2="46.8602" y2="6.1644">
		<stop  offset="0" style="stop-color:#FFFFFF"/>
		<stop  offset="1" style="stop-color:#0D0D0D"/>
	</linearGradient>
	<path class="st1" d="M70.3,6.2L53.6,33.3l24.6,31.9l-16.5-0.1L46.5,39.3L31.3,64.6l-15.8-0.3l23.9-31.1L22.6,6.2h13.2l10.6,21.6
		L57.1,6.2H70.3z"/>
	<path d="M74.2,52.3V6.2h18.6h2.3c6.2,0,10.4,1.1,12.6,3.3c2.2,2.2,3.3,6.4,3.3,12.6c0,6.2-1,10.3-3.1,12.3c-2.1,2-6.3,3-12.6,3
		l-2,0H82.9v14.9H74.2z M101.3,14.3H82.8v15.4h18.5V14.3z"/>
	<linearGradient id="SVGID_2_" gradientUnits="userSpaceOnUse" x1="452.6259" y1="72.5253" x2="452.6259" y2="6.1644">
		<stop  offset="0" style="stop-color:#FFFFFF"/>
		<stop  offset="1" style="stop-color:#0D0D0D"/>
	</linearGradient>
	<path class="st2" d="M458.1,14l0,58.5l-8.7-0.1l0-58.4h-11.6l-7-7.8h43.8l-7.1,7.8H458.1z"/>
	<path d="M486.8,13.5v11.9h14.4v6.5h-14.4v13h15l7.4,7.4H478V6.2h31.1l-7.3,7.4H486.8z"/>
	<path d="M591.7,6.2v46.1H583V32.3h-21.6v19.9h-8.8V6.2h8.8V25H583V6.2H591.7z"/>
	<g>
		<path d="M546.9,21.7c0,0-0.1,0-0.1,0c-0.8,0-8.5,0-8.6,0c0,0,0-0.1,0-0.1c0-0.1,0-0.1,0-0.2c0-2.1,0-4.2,0-6.3c0-0.1,0-0.1,0-0.2
			c0,0-0.1,0-0.1,0c0,0-0.1,0-0.1,0c-6.5,0-13,0-19.4,0c-0.1,0-0.1,0-0.2,0c0,0,0,0.1,0,0.1c0,0.1,0,0.1,0,0.2c0,9.4,0,18.7,0,28.1
			c0,0.1,0,0.2,0,0.2c0,0,0.1,0,0.1,0c0.1,0,0.1,0,0.2,0c6.5,0,12.9,0,19.4,0c0.1,0,0.2,0,0.2,0c0,0,0-0.1,0-0.1c0-0.1,0-0.1,0-0.2
			c0-2.3,0-4.7,0-7c0-0.1,0-0.1,0-0.2c0,0,0.1,0,0.1,0c0,0,0.1,0,0.1,0c2.9,0,5.8,0,8.7,0c0.1,0,0.1,0,0.2,0c0,0.1,0,0.1,0,0.1
			c0,1.1,0,2.2,0,3.2c0,0.5,0,1-0.1,1.5c0,0.4-0.1,0.8-0.1,1.3c-0.1,0.5-0.1,0.9-0.2,1.4c-0.1,0.7-0.3,1.3-0.4,1.9
			c-0.2,0.8-0.5,1.6-0.9,2.4c-0.3,0.5-0.6,1-1,1.4c-0.5,0.5-1,1-1.6,1.3c-0.6,0.4-1.3,0.6-2,0.8c-0.7,0.2-1.5,0.4-2.3,0.6
			c-0.6,0.1-1.3,0.2-1.9,0.3c-0.5,0.1-1.1,0.1-1.6,0.2c-0.5,0-0.9,0.1-1.4,0.1c-0.2,0-0.4,0-0.5,0c-0.9,0.1-1.9,0.1-2.8,0.1
			c-1.1,0-2.2,0-3.3,0c-0.6,0-1.2,0-1.8-0.1c-0.4,0-0.7,0-1.1,0c-0.4,0-0.8-0.1-1.2-0.1c-0.3,0-0.6,0-0.9-0.1c-0.3,0-0.7-0.1-1-0.1
			c-0.4,0-0.7-0.1-1.1-0.2c-1.6-0.2-3.1-0.6-4.6-1.2c-0.7-0.3-1.3-0.6-2-1c-0.4-0.3-0.9-0.6-1.2-0.9c-0.4-0.4-0.8-0.9-1.1-1.4
			c-0.3-0.6-0.6-1.2-0.8-1.8c-0.3-0.8-0.5-1.6-0.6-2.4c-0.2-0.8-0.3-1.6-0.4-2.4c-0.1-0.5-0.1-1.1-0.2-1.6c-0.1-0.6-0.1-1.2-0.2-1.9
			c-0.1-0.6-0.1-1.2-0.2-1.8c0-0.4-0.1-0.8-0.1-1.2c0-0.5-0.1-1-0.1-1.5c0-0.3,0-0.5,0-0.8c0-0.8-0.1-1.6-0.1-2.5
			c-0.1-1.8-0.1-3.6-0.1-5.4c0-0.8,0-1.6,0-2.4c0-0.6,0.1-1.2,0.1-1.8c0-0.5,0.1-1,0.2-1.4c0.2-1.6,0.5-3.1,1-4.7
			c0.3-0.9,0.7-1.7,1.1-2.5c0.4-0.7,0.9-1.3,1.5-1.9c0.5-0.5,1.1-0.9,1.8-1.3c0.8-0.4,1.6-0.7,2.4-1c0.9-0.3,1.7-0.5,2.6-0.7
			c0.7-0.1,1.4-0.3,2.1-0.4c0.5-0.1,1-0.1,1.5-0.2c0.5-0.1,1.1-0.1,1.6-0.2c0.4,0,0.8-0.1,1.2-0.1c0.6,0,1.2-0.1,1.7-0.1
			c0.5,0,0.9,0,1.4,0c1.1,0,2.2,0,3.2,0c0.7,0,1.3,0,2,0.1c0.4,0,0.8,0,1.1,0.1c0.4,0,0.7,0.1,1.1,0.1c0.4,0,0.7,0.1,1.1,0.1
			c1.4,0.2,2.7,0.5,4,1c0.6,0.3,1.3,0.6,1.8,0.9c0.8,0.6,1.5,1.3,2,2.1c0.4,0.7,0.7,1.4,1,2.1c0.3,0.7,0.4,1.5,0.6,2.3
			c0.1,0.6,0.2,1.2,0.3,1.7c0,0.4,0.1,0.9,0.1,1.3c0.1,0.9,0.1,1.8,0.1,2.7c0,0.3,0,0.5,0,0.8C546.9,21.5,546.9,21.6,546.9,21.7z"/>
	</g>
</g>
</svg>
